<svg width="24" height="23" viewBox="0 0 24 23" fill="none" xmlns="http://www.w3.org/2000/svg">
<g clip-path="url(#clip0)">
<path d="M0.851685 8.36259C0.851685 6.18741 1.71577 4.10131 3.25386 2.56322C4.79195 1.02513 6.87805 0.161041 9.05324 0.161041C11.2284 0.161041 13.3145 1.02513 14.8526 2.56322C16.3907 4.10131 17.2548 6.18741 17.2548 8.36259C17.2548 10.5378 16.3907 12.6239 14.8526 14.162C13.3145 15.7001 11.2284 16.5641 9.05324 16.5641C6.87805 16.5641 4.79195 15.7001 3.25386 14.162C1.71577 12.6239 0.851685 10.5378 0.851685 8.36259H0.851685Z" fill="#23A6F0"/>
<path d="M18.7638 7.23338H20.9098C21.0911 7.23338 21.2649 7.30539 21.3931 7.43356C21.5213 7.56174 21.5933 7.73558 21.5933 7.91684V20.2192C21.5933 20.4004 21.5213 20.5743 21.3931 20.7025C21.2649 20.8306 21.0911 20.9026 20.9098 20.9026H8.60752C8.42625 20.9026 8.25241 20.8306 8.12424 20.7025C7.99606 20.5743 7.92405 20.4004 7.92405 20.2192V18.0731C7.46164 18.0066 7.00476 17.9061 6.55713 17.7724V20.2192C6.55713 20.763 6.77315 21.2845 7.15767 21.669C7.5422 22.0535 8.06372 22.2696 8.60752 22.2696H20.9098C21.4536 22.2696 21.9752 22.0535 22.3597 21.669C22.7442 21.2845 22.9602 20.763 22.9602 20.2192V7.91684C22.9602 7.37305 22.7442 6.85152 22.3597 6.467C21.9752 6.08248 21.4536 5.86646 20.9098 5.86646H18.463C18.5956 6.30934 18.6954 6.76589 18.7638 7.23338Z" fill="#23A6F0"/>
</g>
<defs>
<clipPath id="clip0">
<rect width="22.8217" height="22.8217" fill="white" transform="translate(0.495117 0.161041)"/>
</clipPath>
</defs>
</svg>
