<svg width="17" height="17" viewBox="0 0 17 17" fill="none" xmlns="http://www.w3.org/2000/svg">
<path d="M8.75869 0.541504C6.62976 0.541504 6.36205 0.55131 5.52558 0.588574C4.68911 0.627798 4.11937 0.759202 3.62024 0.953364C3.09668 1.15029 2.62245 1.45919 2.2307 1.85848C1.83166 2.25043 1.5228 2.7246 1.32559 3.24802C1.13142 3.74617 0.999041 4.31689 0.960797 5.15042C0.923533 5.98885 0.913727 6.25558 0.913727 8.38745C0.913727 10.5174 0.923533 10.7841 0.960797 11.6206C1.00002 12.456 1.13142 13.0258 1.32559 13.5249C1.52661 14.0407 1.79432 14.4781 2.2307 14.9145C2.6661 15.3508 3.10345 15.6195 3.61926 15.8196C4.11937 16.0137 4.68813 16.1461 5.52362 16.1844C6.36107 16.2216 6.6278 16.2314 8.75869 16.2314C10.8896 16.2314 11.1553 16.2216 11.9928 16.1844C12.8273 16.1451 13.399 16.0137 13.8981 15.8196C14.4213 15.6225 14.8952 15.3136 15.2867 14.9145C15.7231 14.4781 15.9908 14.0407 16.1918 13.5249C16.385 13.0258 16.5174 12.456 16.5566 11.6206C16.5938 10.7841 16.6036 10.5174 16.6036 8.38647C16.6036 6.25558 16.5938 5.98885 16.5566 5.1514C16.5174 4.31689 16.385 3.74617 16.1918 3.24802C15.9946 2.72459 15.6857 2.25041 15.2867 1.85848C14.895 1.45905 14.4208 1.15012 13.8971 0.953364C13.397 0.759202 12.8263 0.626818 11.9918 0.588574C11.1543 0.55131 10.8886 0.541504 8.75673 0.541504H8.75967H8.75869ZM8.05558 1.95556H8.75967C10.8543 1.95556 11.1024 1.96242 11.929 2.00067C12.6939 2.03499 13.1097 2.16345 13.3862 2.27034C13.752 2.41253 14.0138 2.58316 14.2884 2.85773C14.563 3.1323 14.7326 3.39315 14.8748 3.7599C14.9827 4.03545 15.1102 4.45124 15.1445 5.21612C15.1827 6.04278 15.1906 6.29088 15.1906 8.3845C15.1906 10.4781 15.1827 10.7272 15.1445 11.5539C15.1102 12.3188 14.9817 12.7336 14.8748 13.0101C14.749 13.3507 14.5483 13.6587 14.2874 13.9113C14.0128 14.1859 13.752 14.3555 13.3853 14.4977C13.1107 14.6056 12.6949 14.733 11.929 14.7683C11.1024 14.8056 10.8543 14.8144 8.75967 14.8144C6.66506 14.8144 6.41599 14.8056 5.58932 14.7683C4.82444 14.733 4.40964 14.6056 4.1331 14.4977C3.79234 14.3721 3.48406 14.1717 3.23093 13.9113C2.96984 13.6583 2.76879 13.35 2.64256 13.0091C2.53567 12.7336 2.40721 12.3178 2.37289 11.5529C2.33563 10.7262 2.32778 10.4781 2.32778 8.38254C2.32778 6.28794 2.33563 6.04082 2.37289 5.21416C2.40819 4.44928 2.53567 4.03349 2.64354 3.75696C2.78573 3.39119 2.95636 3.12936 3.23093 2.85479C3.50551 2.58021 3.76635 2.41057 4.1331 2.26838C4.40964 2.16051 4.82444 2.03303 5.58932 1.99772C6.31302 1.96438 6.59348 1.95458 8.05558 1.9536V1.95556ZM12.9469 3.25782C12.8233 3.25782 12.7009 3.28217 12.5867 3.32948C12.4724 3.37679 12.3687 3.44613 12.2812 3.53355C12.1938 3.62097 12.1245 3.72475 12.0772 3.83896C12.0299 3.95318 12.0055 4.07559 12.0055 4.19922C12.0055 4.32284 12.0299 4.44526 12.0772 4.55947C12.1245 4.67369 12.1938 4.77747 12.2812 4.86488C12.3687 4.9523 12.4724 5.02164 12.5867 5.06895C12.7009 5.11626 12.8233 5.14061 12.9469 5.14061C13.1966 5.14061 13.436 5.04143 13.6126 4.86488C13.7891 4.68834 13.8883 4.44889 13.8883 4.19922C13.8883 3.94954 13.7891 3.7101 13.6126 3.53355C13.436 3.357 13.1966 3.25782 12.9469 3.25782ZM8.75967 4.35808C8.2253 4.34974 7.69461 4.44779 7.1985 4.64652C6.70239 4.84525 6.25077 5.14068 5.86993 5.51562C5.48909 5.89057 5.18665 6.33752 4.9802 6.83048C4.77376 7.32343 4.66744 7.85252 4.66744 8.38696C4.66744 8.92139 4.77376 9.45048 4.9802 9.94343C5.18665 10.4364 5.48909 10.8833 5.86993 11.2583C6.25077 11.6332 6.70239 11.9287 7.1985 12.1274C7.69461 12.3261 8.2253 12.4242 8.75967 12.4158C9.81731 12.3993 10.826 11.9676 11.5681 11.2138C12.3102 10.4601 12.7262 9.44472 12.7262 8.38696C12.7262 7.32919 12.3102 6.31384 11.5681 5.56007C10.826 4.80631 9.81731 4.37458 8.75967 4.35808ZM8.75967 5.77115C9.45329 5.77115 10.1185 6.04669 10.609 6.53716C11.0994 7.02763 11.375 7.69284 11.375 8.38647C11.375 9.08009 11.0994 9.74531 10.609 10.2358C10.1185 10.7262 9.45329 11.0018 8.75967 11.0018C8.06604 11.0018 7.40083 10.7262 6.91036 10.2358C6.4199 9.74531 6.14435 9.08009 6.14435 8.38647C6.14435 7.69284 6.4199 7.02763 6.91036 6.53716C7.40083 6.04669 8.06604 5.77115 8.75967 5.77115Z" fill="#23A6F0"/>
</svg>
