<svg width="16" height="14" viewBox="0 0 16 14" fill="none" xmlns="http://www.w3.org/2000/svg">
<path d="M5.22221 13.8047C11.1432 13.8047 14.3822 8.86465 14.3822 4.58811C14.3822 4.44987 14.3822 4.30966 14.3763 4.17142C15.0069 3.71176 15.5511 3.14267 15.9835 2.49082C15.3945 2.75234 14.7703 2.9247 14.1311 3.00231C14.8044 2.59711 15.3086 1.95956 15.5501 1.20816C14.9176 1.58548 14.2253 1.85035 13.5035 1.99119C13.0183 1.47084 12.3762 1.12612 11.6767 1.01043C10.9772 0.894747 10.2594 1.01455 9.63435 1.35127C9.00932 1.688 8.512 2.22286 8.21942 2.87302C7.92685 3.52317 7.85535 4.25232 8.01599 4.94754C6.73603 4.88291 5.48385 4.54809 4.34067 3.96479C3.19749 3.3815 2.18884 2.56275 1.38014 1.56166C0.96959 2.27565 0.8443 3.12021 1.02971 3.92384C1.21512 4.72747 1.69732 5.42992 2.37841 5.88855C1.86803 5.87109 1.36888 5.73309 0.921206 5.48568V5.53012C0.922087 6.27807 1.17941 7.00278 1.64968 7.58175C2.11996 8.16072 2.77433 8.55842 3.5022 8.70765C3.22592 8.78429 2.94053 8.82249 2.65396 8.82121C2.45194 8.82182 2.25032 8.80298 2.05186 8.76492C2.25758 9.40878 2.65815 9.97172 3.19747 10.3749C3.73678 10.7781 4.38783 11.0013 5.05942 11.0133C3.91853 11.9156 2.50922 12.405 1.05849 12.4026C0.802866 12.4037 0.547417 12.3888 0.29361 12.3582C1.76603 13.3034 3.47601 13.8053 5.22221 13.8047Z" fill="#23A6F0"/>
</svg>
