<svg width="52" height="40" viewBox="0 0 52 40" fill="none" xmlns="http://www.w3.org/2000/svg">
<path fill-rule="evenodd" clip-rule="evenodd" d="M0.903629 5.4458C1.22719 4.00181 2.02257 2.71252 3.15952 1.78909C4.29647 0.865658 5.70758 0.362815 7.16177 0.362915H45.6734C47.1276 0.362815 48.5387 0.865658 49.6756 1.78909C50.8126 2.71252 51.608 4.00181 51.9315 5.4458L26.4176 21.3286L0.903629 5.4458ZM0.743164 9.17869V32.3998L19.3667 20.7696L0.743164 9.17869ZM22.4413 22.6884L1.35614 35.8516C1.8771 36.9704 2.69932 37.9155 3.72711 38.577C4.75491 39.2384 5.946 39.5889 7.16177 39.5877H45.6734C46.889 39.588 48.0796 39.2367 49.1068 38.5747C50.134 37.9127 50.9556 36.9672 51.4758 35.8483L30.3907 22.6851L26.4176 25.1595L22.4413 22.6851V22.6884ZM33.4684 20.7729L52.092 32.3998V9.17869L33.4684 20.7696V20.7729Z" fill="#23A6F0"/>
</svg>
