<svg width="51" height="53" viewBox="0 0 51 53" fill="none" xmlns="http://www.w3.org/2000/svg">
<path d="M39.7859 28.7544C39.5352 28.5033 39.2375 28.304 38.9097 28.1681C38.5819 28.0322 38.2306 27.9622 37.8757 27.9622C37.5209 27.9622 37.1695 28.0322 36.8418 28.1681C36.514 28.304 36.2163 28.5033 35.9656 28.7544L31.6589 33.0611C29.6623 32.4667 25.9365 31.1158 23.5751 28.7544C21.2137 26.393 19.8628 22.6672 19.2684 20.6706L23.5751 16.3639C23.8262 16.1132 24.0255 15.8155 24.1614 15.4877C24.2973 15.1599 24.3673 14.8086 24.3673 14.4538C24.3673 14.0989 24.2973 13.7476 24.1614 13.4198C24.0255 13.092 23.8262 12.7943 23.5751 12.5436L12.7679 1.73638C12.5172 1.48526 12.2195 1.28604 11.8917 1.15011C11.5639 1.01418 11.2126 0.944214 10.8577 0.944214C10.5029 0.944214 10.1515 1.01418 9.82377 1.15011C9.496 1.28604 9.19825 1.48526 8.94756 1.73638L1.62028 9.06367C0.593594 10.0903 0.0154086 11.5007 0.037023 12.9407C0.0991644 16.7881 1.11774 30.1512 11.6494 40.6828C22.181 51.2144 35.5441 52.2303 39.3941 52.2952H39.4698C40.8963 52.2952 42.2445 51.7332 43.2658 50.7119L50.5931 43.3846C50.8442 43.1339 51.0435 42.8362 51.1794 42.5084C51.3153 42.1806 51.3853 41.8293 51.3853 41.4745C51.3853 41.1196 51.3153 40.7683 51.1794 40.4405C51.0435 40.1127 50.8442 39.815 50.5931 39.5643L39.7859 28.7544ZM39.4428 46.8889C36.0709 46.8321 24.5342 45.927 15.4697 36.8598C6.37545 27.7655 5.49466 16.1883 5.44062 12.884L10.8577 7.4669L17.8446 14.4538L14.3512 17.9472C14.0336 18.2645 13.8001 18.656 13.6718 19.0862C13.5435 19.5164 13.5244 19.9718 13.6163 20.4112C13.6811 20.7219 15.2671 28.0897 19.7521 32.5747C24.237 37.0597 31.6049 38.6457 31.9156 38.7105C32.3547 38.805 32.8106 38.7874 33.2412 38.6595C33.6718 38.5315 34.0633 38.2973 34.3796 37.9783L37.8757 34.4849L44.8626 41.4718L39.4428 46.8889Z" fill="#23A6F0"/>
</svg>
