<svg width="24" height="24" viewBox="0 0 24 24" fill="none" xmlns="http://www.w3.org/2000/svg">
<g clip-path="url(#clip0)">
<path fill-rule="evenodd" clip-rule="evenodd" d="M20.7316 1.95957H3.08041C2.6903 1.95957 2.31616 2.11638 2.04031 2.39551C1.76445 2.67464 1.60948 3.05322 1.60948 3.44797V15.3552C1.60948 15.75 1.76445 16.1285 2.04031 16.4077C2.31616 16.6868 2.6903 16.8436 3.08041 16.8436H6.75774C7.21445 16.8436 7.66488 16.9512 8.07338 17.1579C8.48187 17.3646 8.8372 17.6646 9.11122 18.0343L11.906 21.8045L14.7008 18.0343C14.9748 17.6646 15.3301 17.3646 15.7386 17.1579C16.1471 16.9512 16.5975 16.8436 17.0542 16.8436H20.7316C21.1217 16.8436 21.4958 16.6868 21.7717 16.4077C22.0475 16.1285 22.2025 15.75 22.2025 15.3552V3.44797C22.2025 3.05322 22.0475 2.67464 21.7717 2.39551C21.4958 2.11638 21.1217 1.95957 20.7316 1.95957ZM3.08041 0.471161C2.30018 0.471161 1.55191 0.784788 1.0002 1.34305C0.448495 1.90131 0.13855 2.65847 0.13855 3.44797L0.13855 15.3552C0.13855 16.1447 0.448495 16.9019 1.0002 17.4601C1.55191 18.0184 2.30018 18.332 3.08041 18.332H6.75774C6.98609 18.332 7.21131 18.3858 7.41556 18.4891C7.6198 18.5925 7.79747 18.7425 7.93448 18.9274L10.7292 22.6975C10.8663 22.8824 11.0439 23.0324 11.2482 23.1357C11.4524 23.2391 11.6776 23.2929 11.906 23.2929C12.1343 23.2929 12.3596 23.2391 12.5638 23.1357C12.7681 23.0324 12.9457 22.8824 13.0827 22.6975L15.8775 18.9274C16.0145 18.7425 16.1922 18.5925 16.3964 18.4891C16.6007 18.3858 16.8259 18.332 17.0542 18.332H20.7316C21.5118 18.332 22.2601 18.0184 22.8118 17.4601C23.3635 16.9019 23.6734 16.1447 23.6734 15.3552V3.44797C23.6734 2.65847 23.3635 1.90131 22.8118 1.34305C22.2601 0.784788 21.5118 0.471161 20.7316 0.471161L3.08041 0.471161Z" fill="#23A6F0"/>
<path fill-rule="evenodd" clip-rule="evenodd" d="M10.4949 7.97997C10.1994 7.54785 9.76251 7.21747 9.24994 7.03847C8.73737 6.85948 8.17678 6.84155 7.65242 6.98737C7.12807 7.13319 6.66828 7.4349 6.34216 7.84713C6.01605 8.25936 5.84122 8.75986 5.84396 9.27339C5.84424 9.69864 5.96611 10.116 6.19687 10.4819C6.42762 10.8478 6.75877 11.1488 7.15574 11.3535C7.55271 11.5582 8.00091 11.6589 8.45354 11.6453C8.90616 11.6318 9.34659 11.5043 9.72881 11.2762C9.5301 11.8303 9.15997 12.4215 8.55016 13.0141C8.43349 13.1274 8.36954 13.2796 8.37239 13.4372C8.37523 13.5948 8.44464 13.7449 8.56533 13.8545C8.68603 13.9641 8.84812 14.0241 9.01597 14.0214C9.18381 14.0188 9.34365 13.9536 9.46032 13.8403C11.7145 11.6466 11.4217 9.26199 10.4949 7.98281V7.97997ZM16.5626 7.97997C16.2671 7.54785 15.8302 7.21747 15.3176 7.03847C14.8051 6.85948 14.2445 6.84155 13.7201 6.98737C13.1958 7.13319 12.736 7.4349 12.4099 7.84713C12.0838 8.25936 11.9089 8.75986 11.9117 9.27339C11.9119 9.69864 12.0338 10.116 12.2646 10.4819C12.4953 10.8478 12.8265 11.1488 13.2234 11.3535C13.6204 11.5582 14.0686 11.6589 14.5212 11.6453C14.9739 11.6318 15.4143 11.5043 15.7965 11.2762C15.5978 11.8303 15.2277 12.4215 14.6179 13.0141C14.5012 13.1274 14.4373 13.2796 14.4401 13.4372C14.4429 13.5948 14.5123 13.7449 14.633 13.8545C14.7537 13.9641 14.9158 14.0241 15.0837 14.0214C15.2515 14.0188 15.4114 13.9536 15.528 13.8403C17.7822 11.6466 17.4894 9.26199 16.5626 7.98281V7.97997Z" fill="#23A6F0"/>
</g>
<defs>
<clipPath id="clip0">
<rect width="22.8217" height="22.8217" fill="white" transform="translate(0.495117 0.47113)"/>
</clipPath>
</defs>
</svg>
