<svg width="35" height="28" viewBox="0 0 35 28" fill="none" xmlns="http://www.w3.org/2000/svg">
<path fill-rule="evenodd" clip-rule="evenodd" d="M33.5133 27.0126C33.5133 27.0126 35.7123 27.0126 35.7123 24.7938C35.7123 22.575 33.5133 15.9187 24.7174 15.9187C15.9216 15.9187 13.7226 22.575 13.7226 24.7938C13.7226 27.0126 15.9216 27.0126 15.9216 27.0126H33.5133ZM15.9699 24.7938H33.4649C33.4752 24.7926 33.4855 24.7911 33.4957 24.7894L33.5133 24.7849C33.5089 24.1992 33.1461 22.4996 31.8421 20.9686C30.6283 19.5331 28.4953 18.1375 24.7174 18.1375C20.9418 18.1375 18.8088 19.5353 17.5928 20.9686C16.2888 22.4996 15.9238 24.2014 15.9216 24.7849C15.9377 24.7881 15.9538 24.791 15.9699 24.7938ZM24.7174 11.4812C25.8838 11.4812 27.0025 11.0136 27.8272 10.1814C28.652 9.34922 29.1154 8.22051 29.1154 7.0436C29.1154 5.86669 28.652 4.73798 27.8272 3.90577C27.0025 3.07357 25.8838 2.60605 24.7174 2.60605C23.551 2.60605 22.4324 3.07357 21.6076 3.90577C20.7829 4.73798 20.3195 5.86669 20.3195 7.0436C20.3195 8.22051 20.7829 9.34922 21.6076 10.1814C22.4324 11.0136 23.551 11.4812 24.7174 11.4812ZM31.3143 7.0436C31.3143 7.91772 31.1437 8.78328 30.8122 9.59087C30.4807 10.3984 29.9947 11.1322 29.3822 11.7503C28.7696 12.3684 28.0423 12.8587 27.242 13.1932C26.4416 13.5278 25.5838 13.6999 24.7174 13.6999C23.8511 13.6999 22.9933 13.5278 22.1929 13.1932C21.3925 12.8587 20.6653 12.3684 20.0527 11.7503C19.4401 11.1322 18.9542 10.3984 18.6227 9.59087C18.2912 8.78328 18.1205 7.91772 18.1205 7.0436C18.1205 5.27823 18.8156 3.58517 20.0527 2.33686C21.2899 1.08856 22.9678 0.387268 24.7174 0.387268C26.467 0.387268 28.145 1.08856 29.3822 2.33686C30.6193 3.58517 31.3143 5.27823 31.3143 7.0436ZM15.7808 16.54C14.9012 16.2605 13.9945 16.0768 13.0761 15.9919C12.5601 15.9424 12.042 15.918 11.5236 15.9187C2.72777 15.9187 0.528809 22.575 0.528809 24.7938C0.528809 26.2737 1.26106 27.0126 2.72777 27.0126H11.9986C11.6726 26.3199 11.5101 25.5605 11.5236 24.7938C11.5236 22.5528 12.3527 20.2631 13.9205 18.3505C14.4549 17.6982 15.0772 17.088 15.7808 16.54ZM11.3477 18.1375C7.67985 18.1819 5.59743 19.5575 4.39899 20.9686C3.08621 22.5085 2.72777 24.2147 2.72777 24.7938H9.32467C9.32467 22.4752 10.0349 20.1654 11.3477 18.1375ZM3.82726 8.15299C3.82726 6.38762 4.52229 4.69456 5.75945 3.44625C6.9966 2.19795 8.67455 1.49666 10.4242 1.49666C12.1738 1.49666 13.8517 2.19795 15.0889 3.44625C16.326 4.69456 17.0211 6.38762 17.0211 8.15299C17.0211 9.91836 16.326 11.6114 15.0889 12.8597C13.8517 14.108 12.1738 14.8093 10.4242 14.8093C8.67455 14.8093 6.9966 14.108 5.75945 12.8597C4.52229 11.6114 3.82726 9.91836 3.82726 8.15299ZM10.4242 3.71543C9.25775 3.71543 8.13912 4.18296 7.31435 5.01516C6.48958 5.84737 6.02622 6.97607 6.02622 8.15299C6.02622 9.3299 6.48958 10.4586 7.31435 11.2908C8.13912 12.123 9.25775 12.5905 10.4242 12.5905C11.5906 12.5905 12.7092 12.123 13.534 11.2908C14.3587 10.4586 14.8221 9.3299 14.8221 8.15299C14.8221 6.97607 14.3587 5.84737 13.534 5.01516C12.7092 4.18296 11.5906 3.71543 10.4242 3.71543Z" fill="#23A6F0"/>
</svg>
